<?xml version="1.0" ?>

<!-- Uploaded to: SVG Repo, www.svgrepo.com, Generator: SVG Repo Mixer Tools -->
<svg width="800px" height="800px" viewBox="0 0 20 20" version="1.1" xmlns="http://www.w3.org/2000/svg">

<g id="layer1">

<path d="M 10 0 L 8 2 L 0 2 L 0 15 L 3 15 L 3 14 L 1 14 L 1 3 L 17 3 L 17 6 L 18 6 L 18 2 L 18 0 L 10 0 z M 10.646484 1 L 17 1 L 17 2 L 9.6464844 2 L 10.646484 1 z M 4 7 L 4 20 L 20 20 L 20 7 L 4 7 z M 5 8 L 19 8 L 19 19 L 5 19 L 5 8 z M 6 9 L 6 10 L 7 10 L 7 9 L 6 9 z M 17 9 L 17 10 L 18 10 L 18 9 L 17 9 z M 9 9.6171875 L 9 17.382812 L 9.7578125 16.929688 L 15.472656 13.5 L 9 9.6171875 z M 6 11 L 6 12 L 7 12 L 7 11 L 6 11 z M 17 11 L 17 12 L 18 12 L 18 11 L 17 11 z M 10 11.384766 L 13.525391 13.5 L 10 15.615234 L 10 11.384766 z M 6 13 L 6 14 L 7 14 L 7 13 L 6 13 z M 17 13 L 17 14 L 18 14 L 18 13 L 17 13 z M 6 15 L 6 16 L 7 16 L 7 15 L 6 15 z M 17 15 L 17 16 L 18 16 L 18 15 L 17 15 z M 6 17 L 6 18 L 7 18 L 7 17 L 6 17 z M 17 17 L 17 18 L 18 18 L 18 17 L 17 17 z " style="fill:#253159; fill-opacity:1; stroke:none; stroke-width:0px;"/>

</g>

</svg>