<?xml version="1.0" encoding="iso-8859-1"?>
<!-- Generator: Adobe Illustrator 19.0.0, SVG Export Plug-In . SVG Version: 6.00 Build 0)  -->
<svg version="1.1" id="Layer_1" xmlns="http://www.w3.org/2000/svg" xmlns:xlink="http://www.w3.org/1999/xlink" x="0px" y="0px"
	 viewBox="0 0 473.931 473.931" style="enable-background:new 0 0 473.931 473.931;" xml:space="preserve">
<circle style="fill:#67B8CB;" cx="236.966" cy="236.966" r="236.966"/>
<rect x="140.29" y="106.737" transform="matrix(-0.9875 0.1577 -0.1577 -0.9875 523.1761 457.1625)" style="fill:#E8E7E7;" width="206.323" height="285.201"/>
<rect x="130.098" y="116.924" transform="matrix(-0.9997 -0.0254 0.0254 -0.9997 459.8537 524.8926)" style="fill:#FFFFFF;" width="206.325" height="285.203"/>
<path style="fill:#4B4A4B;" d="M282.978,146.179V97.331c0-20.733-11.356-33.13-31.161-33.983
	c-21.93,0.606-33.844,12.613-33.844,33.799l0.03,11.54l8.812-1.616l-0.022-9.923c-0.007-16.569,7.929-24.52,24.958-24.987
	c14.982,0.662,22.413,8.894,22.413,25.171v50.259l-0.007,103.149c0.007,11.772-11.787,15.577-17.504,15.577
	c-4.026,0.168-7.899-1.325-10.817-4.116c-3.091-2.952-4.801-7.076-4.793-11.599v-97.724l-8.812,1.407v96.32
	c0,6.96,2.668,13.339,7.521,17.979c4.64,4.441,10.881,6.829,17.107,6.544c10.735,0.007,26.117-7.562,26.117-24.389v-104.56H282.978z
	"/>
<g>
</g>
<g>
</g>
<g>
</g>
<g>
</g>
<g>
</g>
<g>
</g>
<g>
</g>
<g>
</g>
<g>
</g>
<g>
</g>
<g>
</g>
<g>
</g>
<g>
</g>
<g>
</g>
<g>
</g>
</svg>
