<?xml version="1.0" encoding="iso-8859-1"?>
<!-- Generator: Adobe Illustrator 19.0.0, SVG Export Plug-In . SVG Version: 6.00 Build 0)  -->
<svg version="1.1" id="Layer_1" xmlns="http://www.w3.org/2000/svg" xmlns:xlink="http://www.w3.org/1999/xlink" x="0px" y="0px"
	 viewBox="0 0 512 512" style="enable-background:new 0 0 512 512;" xml:space="preserve">
<circle style="fill:#D9E6E8;" cx="256" cy="256" r="256"/>
<path style="fill:#263740;" d="M264,148c-4.4,0-9.608-3.22-11.58-7.156l-8.844-17.688C241.608,119.22,236.4,116,232,116H132
	c-8,0-16,8-16,16v8c0,4.4,0,11.6,0,16v228c0,4.4,11.6,16,16,16h264c4.4,0,16-11.6,16-16V164c0-12-4-16-16-16H264z"/>
<path style="fill:#1E2C33;" d="M396,148h-16c12,0,16,4,16,16v220c0,4.4-11.6,16-16,16h16c4.4,0,16-11.6,16-16V164
	C412,152,408,148,396,148z"/>
<path style="fill:#F5F5F5;" d="M388,312c0,8.8-7.2,16-16,16H156c-8.8,0-16-7.2-16-16V184c0-8.8,7.2-16,16-16h216c8.8,0,16,7.2,16,16
	V312z"/>
<path style="fill:#E6E6E6;" d="M172,204c-11.952,0-23.28,10.956-23.968,22.864L140,258.184V312c0,8.8,7.2,16,16,16h216
	c8.8,0,16-7.2,16-16V204H172z"/>
<path style="fill:#F8CF25;" d="M436,212H172c-8,0-16,8-16,16l-40,156c0,8,8,16,16,16h264c8,0,16-8,16-16l40-156
	C452,220,444,212,436,212z"/>
<path style="fill:#EFC822;" d="M436,212h-16c8,0,16,8,16,16l-40,156c0,8-8,16-16,16h16c8,0,16-8,16-16l40-156
	C452,220,444,212,436,212z"/>
<g>
</g>
<g>
</g>
<g>
</g>
<g>
</g>
<g>
</g>
<g>
</g>
<g>
</g>
<g>
</g>
<g>
</g>
<g>
</g>
<g>
</g>
<g>
</g>
<g>
</g>
<g>
</g>
<g>
</g>
</svg>
