<svg enable-background="new 0 0 512 512" viewBox="0 0 512 512" xmlns="http://www.w3.org/2000/svg"><path d="m491 326v-172.155-30.057-31.645c0-13.122-10.741-24.143-23.863-24.143h-126.007c-9.287 0-17.723 5.603-21.596 14.044l-12.709 27.903c-3.873 8.441-12.309 14.053-21.596 14.053h-217.691c-13.122 0-23.538 10.426-23.538 23.549v216.363c0 13.122 10.416 24.088 23.538 24.088h399.599c.628 0 1.248-.36 1.863-.408v45.408h.342c0 6 4.877 10.636 10.829 10.636s10.829-4.967 10.829-10.919z" fill="#253159"/><path d="m480.171 443.636c-5.952 0-10.829-4.636-10.829-10.636h-.342v-29.335-77.665-115.819c0-13.123-10.339-24.181-23.461-24.181h-399.599c-13.122 0-23.94 11.058-23.94 24.181v29.123 210.066c0 13.122 10.818 23.63 23.94 23.63h399.599c1.385 0 2.741-.06 4.061-.288 1.639.227 3.31.385 5.012.385 20.04 0 36.136-16.229 36.136-36.269 0-.534-.036-1.058-.058-1.586-1.147 4.766-5.435 8.394-10.519 8.394z" fill="#435693"/></svg>