<?xml version="1.0" encoding="iso-8859-1"?>
<!-- Uploaded to: SVG Repo, www.svgrepo.com, Generator: SVG Repo Mixer Tools -->
<svg fill="#bdc3de" height="800px" width="800px" version="1.1" id="Layer_1" xmlns="http://www.w3.org/2000/svg" xmlns:xlink="http://www.w3.org/1999/xlink" 
	 viewBox="0 0 512 512" xml:space="preserve">
<g>
	<g>
		<polygon points="332.108,12.159 332.108,41.513 332.108,70.868 332.108,138.376 399.617,138.376 428.972,138.376 458.329,138.376 
					"/>
	</g>
</g>
<g>
	<g>
		<path d="M449.73,179.889h-20.757H311.351c-11.463,0-20.757-9.294-20.757-20.757V41.513V20.757V0H131.459
			c-11.463,0-20.757,9.294-20.757,20.757v401.297c0,11.463,9.294,20.757,20.757,20.757h318.27c11.463,0,20.757-9.293,20.757-20.757
			V179.889H449.73z M366.703,359.784H214.487c-11.463,0-20.757-9.294-20.757-20.757s9.294-20.757,20.757-20.757h152.216
			c11.463,0,20.757,9.294,20.757,20.757S378.166,359.784,366.703,359.784z M366.703,276.757H214.487
			c-11.463,0-20.757-9.294-20.757-20.757s9.294-20.757,20.757-20.757h152.216c11.463,0,20.757,9.294,20.757,20.757
			S378.166,276.757,366.703,276.757z"/>
	</g>
</g>
<g>
	<g>
		<path d="M380.541,470.487H83.027V89.946c0-11.463-9.294-20.757-20.757-20.757s-20.757,9.293-20.757,20.757v401.297
			c0,11.463,9.294,20.757,20.757,20.757h318.27c11.463,0,20.757-9.293,20.757-20.757
			C401.297,479.78,392.004,470.487,380.541,470.487z"/>
	</g>
</g>
</svg>