<?xml version="1.0" encoding="utf-8"?>
<!-- Generator: Adobe Illustrator 24.3.0, SVG Export Plug-In . SVG Version: 6.00 Build 0)  -->
<svg version="1.1" id="Layer_1" xmlns="http://www.w3.org/2000/svg" xmlns:xlink="http://www.w3.org/1999/xlink" x="0px" y="0px"
	 viewBox="0 0 2000 2000" style="enable-background:new 0 0 2000 2000;" xml:space="preserve">
<style type="text/css">
	.st0{fill:#FFFFFF;}
	.st1{fill:#A8CBDE;}
	.st2{fill:#14142E;}
	.st3{fill:#3057F3;}
	.st4{fill:#A6A6AF;}
	.st5{opacity:0.54;fill:#A8CBDE;}
	.st6{fill:url(#XMLID_2_);}
</style>
<g>
	<path class="st0" d="M1160.1,1114.2h35.9c74.4,0,141.9-30.2,190.6-78.9c48.8-48.7,79-116.2,78.9-190.6v-69.8
		c0-74.4-30.2-141.9-78.9-190.6c-48.7-48.8-116.2-79-190.6-78.9H804.1c-74.4,0-141.9,30.2-190.6,78.9
		c-48.7,48.7-79,116.2-78.9,190.6v69.8c0,74.4,30.2,141.9,78.9,190.6c48.7,48.7,116.2,79,190.6,78.9h35.9"/>
	<path class="st1" d="M1456.1,774.1v71.2c0,141.5-114.7,256.2-256.2,256.2H800.1c-78.7,0-149.1-35.5-196.1-91.3
		c25.5,8.6,52.8,13.2,81.2,13.2H1085c141.5,0,256.2-114.7,256.2-256.2V696c0-62.8-22.6-120.4-60.2-164.9
		C1382.7,565,1456.1,661,1456.1,774.1z"/>
	<path class="st2" d="M1199.9,1101.5v-18.8H800.1c-65.6,0-124.8-26.5-167.9-69.5c-43-43-69.5-102.2-69.5-167.8v-71.2
		c0-65.6,26.5-124.8,69.5-167.9c43-43,102.2-69.5,167.9-69.5h399.8c65.6,0,124.8,26.5,167.9,69.5c43,43,69.5,102.2,69.5,167.9v71.2
		c0,65.6-26.5,124.8-69.5,167.8c-43,43-102.2,69.5-167.9,69.5V1101.5v18.8c75.9,0,144.7-30.8,194.5-80.5
		c49.7-49.7,80.6-118.6,80.5-194.5v-71.2c0-75.9-30.8-144.7-80.5-194.5c-49.7-49.7-118.6-80.6-194.5-80.5H800.1
		c-75.9,0-144.7,30.8-194.5,80.5c-49.7,49.7-80.6,118.6-80.5,194.5v71.2c0,75.9,30.8,144.7,80.5,194.5
		c49.7,49.7,118.6,80.6,194.5,80.5h399.8V1101.5z"/>
	<path class="st3" d="M1544,953.3V666.1c72.3,0,131,58.6,131,131v25.3C1674.9,894.7,1616.3,953.3,1544,953.3"/>
	<path class="st3" d="M456,953.3V666.1c-72.3,0-131,58.6-131,131v25.3C325.1,894.7,383.7,953.3,456,953.3"/>
	<path class="st4" d="M391.7,683c-10.4,5.9-19.9,13.1-28.3,21.5c-23.7,23.7-38.4,56.4-38.4,92.6v25.3c0,72.3,58.7,131,131,131v0
		c-72.3,0-131-58.6-131-131v-25.3C325.1,748.2,351.9,705.5,391.7,683"/>
	<path class="st5" d="M406.2,676c-5,2-9.8,4.4-14.5,7c-39.8,22.5-66.6,65.2-66.6,114.1v25.3c0,72.3,58.6,131,131,131v-53
		c-45.4-20.6-77-66.3-77-119.4v-25.3C379.1,725.7,389.2,698,406.2,676"/>
	<path class="st4" d="M1544,900.4L1544,900.4v53c25.3,0,48.9-7.2,68.9-19.6c-20,12.4-43.6,19.6-68.9,19.6L1544,900.4 M1667,752.2
		c5.1,14,7.9,29.1,7.9,44.9v25.3c0,13.2-2,26-5.6,38.1c3.7-12,5.6-24.8,5.6-38.1v-25.3C1674.9,781.3,1672.1,766.2,1667,752.2"/>
	<path class="st5" d="M1593.8,676c17,22.1,27.1,49.7,27.1,79.8V781c0,53.1-31.6,98.8-77,119.4l0,53c25.3,0,48.9-7.2,68.9-19.6
		c26.8-16.6,47.1-42.6,56.4-73.3c3.7-12,5.6-24.8,5.6-38.1v-25.3c0-15.8-2.8-30.9-7.9-44.9c-6.6-18.1-17.1-34.3-30.5-47.7
		C1624.4,692.4,1609.9,682.6,1593.8,676"/>
	<path class="st2" d="M1544,953.3h18.8V666.1H1544v18.8c31,0,59,12.5,79.3,32.8c20.3,20.4,32.8,48.3,32.8,79.3v25.3
		c0,31-12.5,58.9-32.8,79.3c-20.4,20.3-48.3,32.8-79.3,32.8V953.3h18.8H1544v18.8c41.3,0,78.9-16.8,105.9-43.9
		c27.1-27,43.9-64.6,43.9-105.9v-25.3c0-41.3-16.8-78.9-43.9-105.9c-27-27.1-64.6-43.9-105.9-43.9h-18.8v324.8h18.8V953.3z"/>
	<path class="st2" d="M456,953.3h18.8v-306H456c-41.3,0-78.9,16.8-105.9,43.9c-27.1,27-43.9,64.6-43.9,105.9v25.3
		c0,41.3,16.8,78.9,43.9,105.9c27,27.1,64.6,43.9,105.9,43.9h18.8v-18.8H456v-18.8c-31,0-59-12.5-79.3-32.8
		c-20.3-20.4-32.8-48.3-32.8-79.3v-25.3c0-31,12.5-59,32.8-79.3c20.4-20.3,48.3-32.8,79.3-32.8v-18.8h-18.8v287.2H456v-18.8V953.3z"
		/>
	<path class="st2" d="M1150.5,473.5H844.1l3.1-7.7c23-57.4,78.6-95,140.3-95h19.5c61.8,0,117.4,37.6,140.3,95L1150.5,473.5z"/>
	<polyline class="st2" points="1022.4,422.2 1022.4,287.2 972.2,287.2 972.2,422.2 1022.4,422.2 	"/>
	<path class="st3" d="M1099.9,187.3c0-55.2-44.7-99.9-99.9-99.9c-55.2,0-99.9,44.7-99.9,99.9c0,55.2,44.7,99.9,99.9,99.9
		C1055.2,287.2,1099.9,242.5,1099.9,187.3"/>
	<path class="st4" d="M999.7,287.2c0.1,0,0.2,0,0.3,0c0,0,0,0,0,0C999.9,287.2,999.8,287.2,999.7,287.2 M1042.8,277.6
		C1042.8,277.6,1042.8,277.7,1042.8,277.6C1042.8,277.7,1042.8,277.6,1042.8,277.6 M935.5,263.7c17.3,14.7,39.7,23.5,64.1,23.6
		C975.2,287.2,952.9,278.3,935.5,263.7 M935.4,263.5C935.4,263.6,935.4,263.6,935.4,263.5C935.4,263.6,935.4,263.6,935.4,263.5
		 M1076.2,252c-9.1,10.7-20.5,19.5-33.3,25.6C1055.7,271.5,1067.1,262.7,1076.2,252"/>
	<path class="st5" d="M1017.5,88.9c16.5,17.8,26.5,41.6,26.5,67.7c0,55.2-44.8,100-100,100c-6,0-11.9-0.5-17.6-1.5
		c2.8,3,5.7,5.8,8.8,8.5c0,0,0.1,0.1,0.1,0.1c0,0,0,0,0.1,0.1c17.3,14.6,39.7,23.5,64.1,23.6c0,0,0,0,0,0c0.1,0,0.2,0,0.3,0
		c15.3,0,29.8-3.4,42.8-9.6c0,0,0,0,0,0c0,0,0.1,0,0.1,0c12.8-6.1,24.2-14.9,33.3-25.6c14.8-17.4,23.8-40,23.8-64.7
		C1099.9,138.1,1064.4,97.1,1017.5,88.9"/>
	<path class="st2" d="M1099.9,187.3h18.8c0-32.7-13.3-62.5-34.8-84c-21.4-21.5-51.2-34.8-84-34.8c-32.7,0-62.5,13.3-84,34.8
		c-21.5,21.4-34.8,51.2-34.8,84c0,32.7,13.3,62.5,34.8,84c21.4,21.5,51.2,34.8,84,34.8c32.7,0,62.5-13.3,84-34.8
		c21.5-21.4,34.8-51.2,34.8-84H1099.9h-18.8c0,22.5-9.1,42.6-23.8,57.4c-14.7,14.7-34.9,23.8-57.4,23.8c-22.5,0-42.6-9.1-57.4-23.8
		c-14.7-14.7-23.8-34.9-23.8-57.4c0-22.5,9.1-42.6,23.8-57.4c14.7-14.7,34.9-23.8,57.4-23.8c22.5,0,42.6,9.1,57.4,23.8
		c14.7,14.7,23.8,34.9,23.8,57.4H1099.9z"/>
	<path class="st2" d="M934.4,851.1c0-29.7-12.1-56.8-31.6-76.2c-19.4-19.5-46.5-31.6-76.2-31.6c-29.7,0-56.8,12.1-76.2,31.6
		c-19.5,19.4-31.6,46.5-31.6,76.2H769c0-16,6.4-30.2,16.9-40.8c10.5-10.5,24.8-16.9,40.8-16.9c16,0,30.2,6.4,40.8,16.9
		c10.5,10.5,16.9,24.8,16.9,40.8H934.4L934.4,851.1z"/>
	<path class="st2" d="M1281.2,851.1c0-29.7-12.1-56.8-31.6-76.2c-19.4-19.5-46.5-31.6-76.2-31.6c-29.7,0-56.8,12.1-76.2,31.6
		c-19.5,19.4-31.6,46.5-31.6,76.2h50.2c0-16,6.4-30.2,16.9-40.8c10.5-10.5,24.8-16.9,40.8-16.9c16,0,30.2,6.4,40.8,16.9
		c10.5,10.5,16.9,24.8,16.9,40.8H1281.2L1281.2,851.1z"/>
	<g>
		<path class="st0" d="M1301.3,1459v-35.5c0-73.6-29.9-140.4-78.1-188.7c-48.2-48.3-115-78.2-188.7-78.1h-69.1
			c-73.6,0-140.4,29.9-188.7,78.1c-48.3,48.2-78.2,115-78.1,188.7v229.4c0,73.6,29.9,140.4,78.1,188.7
			c48.2,48.3,115,78.2,188.7,78.1h69.1c73.6,0,140.4-29.9,188.7-78.1c48.3-48.2,78.2-115,78.1-188.7v-35.5"/>
		<path class="st1" d="M957.8,1163.8h71.2c141.5,0,256.2,114.7,256.2,256.2v236.5c0,78.7-35.5,149.1-91.3,196.1
			c8.6-25.5,13.2-52.8,13.2-81.2v-236.5c0-141.5-114.7-256.2-256.2-256.2h-71.2c-62.8,0-120.4,22.6-164.9,60.2
			C748.7,1237.1,844.7,1163.8,957.8,1163.8z"/>
		<path class="st2" d="M1291.8,1420H1273v236.5c0,65.6-26.5,124.8-69.5,167.9c-43,43-102.2,69.5-167.8,69.5h-71.2
			c-65.6,0-124.8-26.5-167.9-69.5c-43-43-69.5-102.2-69.5-167.9V1420c0-65.6,26.5-124.8,69.5-167.9c43-43,102.2-69.5,167.9-69.5
			h71.2c65.6,0,124.8,26.5,167.8,69.5c43,43,69.5,102.2,69.5,167.9H1291.8h18.8c0-75.9-30.8-144.7-80.5-194.5
			c-49.7-49.7-118.6-80.6-194.5-80.5h-71.2c-75.9,0-144.7,30.8-194.5,80.5c-49.7,49.7-80.6,118.6-80.5,194.5v236.5
			c0,75.9,30.8,144.7,80.5,194.5c49.7,49.7,118.6,80.6,194.5,80.5h71.2c75.9,0,144.7-30.8,194.5-80.5
			c49.7-49.7,80.6-118.6,80.5-194.5V1420H1291.8z"/>
	</g>
	<linearGradient id="XMLID_2_" gradientUnits="userSpaceOnUse" x1="930.2429" y1="1540.5719" x2="1382.2089" y2="1531.1724">
		<stop  offset="0" style="stop-color:#0BABBE"/>
		<stop  offset="0.2849" style="stop-color:#3D55A2"/>
		<stop  offset="0.5484" style="stop-color:#D84A80"/>
		<stop  offset="0.7742" style="stop-color:#D32028"/>
		<stop  offset="0.9892" style="stop-color:#FFCC08"/>
	</linearGradient>
	<polygon id="XMLID_2038_" class="st6" points="733.4,1566.2 762.1,1492 768.3,1476 771.4,1492.2 784.1,1557.6 792.7,1537.9 
		801.8,1516.8 806.5,1538.2 816.3,1582.9 845.9,1530.1 857.6,1509.3 863.5,1530.7 876.8,1579 900.7,1487.1 912.1,1443 922.1,1487.2 
		941.7,1573.6 951.4,1534.3 973.2,1447.7 983.7,1406 995.7,1447.6 1025.7,1551 1044.4,1497.7 1055.1,1467.1 1064.8,1497.7 
		1100.1,1609.4 1127.9,1510 1134.1,1487.9 1142.2,1509.9 1177,1605.3 1217.8,1548.8 1223.5,1540.9 1266.6,1638.1 1222.5,1553.7 
		1180.4,1616.2 1174,1625.6 1170.1,1615.9 1136.7,1532.7 1109.6,1640.2 1102,1670.4 1091.8,1640.3 1054.5,1529.4 1035.5,1586.1 
		1024.1,1620 1014,1586 985.5,1490.1 974.1,1535.5 952.4,1622.1 940.3,1670 929.9,1622.1 910.2,1531.7 886.9,1616.6 876.7,1653.6 
		867.3,1616.6 851.1,1552.9 820.6,1604.7 808.8,1624.8 804.9,1604.1 796.6,1560.1 787.9,1578.6 778.5,1598.5 775.3,1578.2 
		764.5,1508.4 	"/>
</g>
</svg>
