<svg enable-background="new 0 0 512 512" viewBox="0 0 512 512" xmlns="http://www.w3.org/2000/svg"><path d="m506 316v-156.117-66.682-12.588c0-13.823-10.382-24.613-22.912-24.613h-124.254c-7.315 0-14.182 3.684-18.442 10.243l-10.856 16.51c-4.261 6.56-11.127 10.247-18.442 10.247h-212.375c-12.53 0-22.719 11.406-22.719 25.229v264.55c0 13.822 10.189 25.221 22.719 25.221h374.914l1.925 10.297c0 8.344 6.877 15.043 15.221 15.043s15.221-6.831 15.221-15.175z" fill="#253159"/><path d="m490.779 433.291c-8.344 0-15.221-6.747-15.221-15.091l-18.925-102.2h.017l-18.658-92.761c-2.244-11.157-14.221-20.239-26.751-20.239h-383.625c-12.117 0-21.2 11.13-18.81 23.008l6.207 30.87 36.195 179.914c2.245 11.158 14.222 20.208 26.752 20.208h384.369c.473 0 .938-.013 1.399-.039.558.023 1.118.044 1.682.044 20.29 0 37.077-14.97 39.932-34.467-1.903 6.216-7.74 10.753-14.563 10.753z" fill="#435693"/></svg>